<svg xmlns="http://www.w3.org/2000/svg" version="1.1" xmlns:xlink="http://www.w3.org/1999/xlink" xmlns:svgjs="http://svgjs.dev/svgjs" width="2000" height="1664" viewBox="0 0 2000 1664"><g transform="matrix(1,0,0,1,-1.7271271988207673,-2.6826319454258964)"><svg viewBox="0 0 298 248" data-background-color="#fcfcfc" preserveAspectRatio="xMidYMid meet" height="1664" width="2000" xmlns="http://www.w3.org/2000/svg" xmlns:xlink="http://www.w3.org/1999/xlink"><g id="tight-bounds" transform="matrix(1,0,0,1,0.2576384177461364,0.40002634420793015)"><svg viewBox="0 0 297.4850196296296 247.2" height="247.2" width="297.4850196296296"><g><svg viewBox="0 0 297.4850196296296 247.2" height="247.2" width="297.4850196296296"><g><svg viewBox="0 0 297.4850196296296 247.2" height="247.2" width="297.4850196296296"><g id="textblocktransform"><svg viewBox="0 0 297.4850196296296 247.2" height="247.2" width="297.4850196296296" id="textblock"><g><svg viewBox="0 0 297.4850196296296 247.2" height="247.2" width="297.4850196296296"><path d="M296.789 53.02C295.39 27.36 291.404 20.227 291.404 20.227 279.167-6.202 263.895-0.506 250.175 3.292 225.952 3.446 201.828 9.091 177.661 12.119 126.936 12.581 75.777 4.986 25.304 23.717 20.563 29.464-4.919 24.846 0.843 56.304 2.354 69.39 7.864 83.913 7.696 95.922 8.451 98.026 9.5 93.202 9.948 96.23 11.514 104.39 14.074 100.541 16.171 105.365 13.248 118.246 15.346 128.971 17.346 140.21 13.822 143.135 9.304 141.749 7.277 151.449 7.067 158.479 5.934 157.145 4.689 156.837 3.78 156.632 1.948 157.402 2.256 159.608 3.305 167.152-1.199 171.514 1.626 178.904-0.317 186.91 2.969 193.838 2.522 202.511 2.466 204.255 2.773 205.744 3.263 206.154 5.431 208.361 2.27 212.672 2.605 217.342 24.842 249.262 48.967 227.195 71.749 241.872 77.665 231.608 73.218 245.516 75.581 243.36 77.427 240.846 78.77 251.263 80.854 245.362 81.175 243.668 80.686 239.665 81.833 240.435 82.434 240.846 82.966 240.743 83.05 238.382 83.175 234.841 82.071 237.048 81.777 235.201 84.952 225.861 84.168 248.081 87.147 247.158 87.007 244.438 86.14 240.538 87.916 241.051 89.679 237.151 89.735 233.918 91.301 242.693 91.357 244.592 91.637 245.926 92.084 246.85 96.979 237.305 101.846 250.237 106.979 245.926 110.125 241.205 113.146 248.492 116.335 246.696 117.454 245.259 118.586 242.693 119.663 247.004 132.852 247.928 146.907 244.079 159.41 247.158 192.821 241.41 228.526 249.518 263.755 241.923 272.062 238.998 280.691 234.841 288.789 231.506 288.789 231.506 295.348 222.371 295.348 181.316S296.747 145.393 296.956 112.703C297.166 80.013 298.145 78.679 296.747 53.02Z" opacity="1" fill="#ff4444" data-fill-palette-color="tertiary"></path><g transform="matrix(1,0,0,1,55.76832,26.230666666666668)"><svg width="185.9483796296296" viewBox="2.44 -35.16 33.57 35.16" height="194.73866666666666" data-palette-color="#ffffff"><path d="M2.44 0L2.44 0Q2.59-0.61 2.7-1.48 2.81-2.34 2.81-3.27L2.81-3.27Q2.81-4.13 2.69-4.94 2.56-5.76 2.44-6.35L2.44-6.35Q3.54-6.35 4.37-6.52 5.2-6.69 5.76-7.09 6.32-7.5 6.6-8.19 6.88-8.89 6.88-9.94L6.88-9.94Q6.88-11.99 6.77-13.45 6.67-14.92 6.46-15.87 6.25-16.82 5.93-17.32 5.62-17.82 5.2-17.94L5.2-17.94Q5.64-18.09 5.96-18.41 6.27-18.73 6.48-19.49 6.69-20.26 6.79-21.62 6.88-22.97 6.88-25.22L6.88-25.22Q6.88-26.27 6.6-26.97 6.32-27.66 5.76-28.06 5.2-28.47 4.37-28.64 3.54-28.81 2.44-28.81L2.44-28.81Q2.56-29.39 2.69-30.21 2.81-31.03 2.81-31.88L2.81-31.88Q2.81-32.81 2.7-33.68 2.59-34.55 2.44-35.16L2.44-35.16Q2.76-35.03 3.69-34.91 4.61-34.79 5.87-34.7 7.13-34.62 8.59-34.55 10.06-34.47 11.47-34.41 12.89-34.35 14.12-34.33 15.36-34.3 16.16-34.3L16.16-34.3Q18.36-34.3 20.63-34.34 22.9-34.38 24.85-34.47 26.81-34.57 28.27-34.74 29.74-34.91 30.35-35.16L30.35-35.16Q30.4-34.4 31.03-33.5 31.67-32.59 32.54-31.8 33.42-31.01 34.38-30.46 35.33-29.91 36.01-29.88L36.01-29.88Q35.84-29.54 35.71-28.83 35.57-28.13 35.47-27.23 35.38-26.34 35.33-25.38 35.28-24.41 35.28-23.54L35.28-23.54Q35.28-22.61 35.31-21.73 35.35-20.85 35.44-20.07 35.52-19.29 35.66-18.65 35.79-18.02 36.01-17.58L36.01-17.58Q35.06-17.41 34.09-16.87 33.13-16.33 32.28-15.61 31.42-14.89 30.74-14.05 30.05-13.21 29.66-12.45L29.66-12.45Q28.74-12.79 27.04-13.02 25.34-13.26 23.32-13.26L23.32-13.26Q21.7-13.26 20.07-13.04 18.43-12.82 16.89-12.33L16.89-12.33Q16.67-11.52 16.67-10.3L16.67-10.3Q16.67-9.03 16.94-8.26 17.21-7.5 17.97-7.07 18.73-6.64 20.07-6.49 21.41-6.35 23.56-6.35L23.56-6.35Q23.44-5.76 23.32-4.94 23.19-4.13 23.19-3.27L23.19-3.27Q23.19-2.34 23.3-1.48 23.41-0.61 23.56 0L23.56 0Q22.85-0.15 21.7-0.26 20.56-0.37 19.2-0.45 17.85-0.54 16.42-0.57 14.99-0.61 13.75-0.61L13.75-0.61Q12.43-0.61 10.77-0.57 9.11-0.54 7.51-0.45 5.91-0.37 4.54-0.26 3.17-0.15 2.44 0ZM16.75-18.46L16.75-18.46Q17.6-18.19 18.57-18.07 19.53-17.94 20.63-17.94L20.63-17.94Q21.85-17.94 22.79-18.4 23.73-18.85 24.38-19.65 25.02-20.46 25.35-21.55 25.68-22.63 25.68-23.9L25.68-23.9Q25.68-24.98 25.43-25.99 25.17-27 24.61-27.8 24.05-28.59 23.13-29.06 22.22-29.54 20.87-29.54L20.87-29.54Q19.82-29.54 18.73-29.37 17.63-29.2 16.72-28.74L16.72-28.74Q16.6-27.91 16.55-26.87 16.5-25.83 16.5-24.68L16.5-24.68Q16.5-23.02 16.58-21.36 16.65-19.7 16.75-18.46Z" opacity="1" transform="matrix(1,0,0,1,0,0)" fill="#ffffff" class="wordmark-text-0" data-fill-palette-color="quaternary" id="text-0"></path></svg></g></svg></g></svg></g></svg></g><g></g></svg></g><defs></defs></svg><rect width="297.4850196296296" height="247.2" fill="none" stroke="none" visibility="hidden"></rect></g></svg></g></svg>